<svg height="512pt" viewBox="-24 0 511 512" width="512pt" xmlns="http://www.w3.org/2000/svg"><path d="m343.273438 119.011719c0 61.582031-49.921876 111.503906-111.503907 111.503906s-111.503906-49.921875-111.503906-111.503906 49.921875-111.503907 111.503906-111.503907 111.503907 49.921876 111.503907 111.503907zm0 0" fill="#54c8f2"/><path d="m140.289062 119.011719c0-58.207031 44.601563-105.988281 101.492188-111.050781-65.40625-5.824219-121.515625 45.589843-121.515625 111.050781 0 65.367187 56.003906 116.882812 121.515625 111.050781-56.890625-5.0625-101.492188-52.84375-101.492188-111.050781zm0 0" fill="#00acea"/><g fill="#55e072"><path d="m199.226562 81.371094 3.003907-14.019532-44.703125-31.519531c-22.871094 20.40625-37.257813 50.113281-37.257813 83.183594 0 24.300781 3.746094 33.058594 15.519531 55.183594l53.445313-23.597657 1.917969-19.679687-8.945313-13.332031v-18.851563zm0 0"/><path d="m343.269531 119.015625c0 40.632813-21.730469 75.175781-54.210937 94.667969l-19.742188-23.582032 10.066406-46.773437 22.972657-12.300781-.71875-31.035156 30.238281-28.023438c6.675781 14.296875 11.394531 30.238281 11.394531 47.046875zm0 0"/><path d="m309.894531 40.46875-41.078125 56.089844-17.523437-4.003906-9.84375-27.375-14.6875-10.671876-20.386719-43.09375c8.164062-1.902343 16.664062-3.90625 25.394531-3.90625 30.425781 0 58.011719 13.195313 78.125 32.960938zm0 0"/><path d="m241.609375 229.082031c-3.242187.292969-6.527344 1.433594-9.839844 1.433594-28.988281 0-55.390625-12.054687-75.214843-30.199219l12.136718-12.3125 38.71875-3.335937 31.367188 18.023437zm0 0"/></g><path d="m140.292969 119.015625c0-28.851563 10.957031-55.144531 28.9375-74.929687l-11.703125-8.253907c-22.871094 20.40625-37.257813 50.113281-37.257813 83.183594 0 24.300781 3.746094 33.058594 15.519531 55.183594l16.261719-7.179688c-8.820312-17.175781-11.757812-26.511719-11.757812-48.003906zm0 0" fill="#00d33d"/><path d="m289.339844 190.101562 10.066406-46.773437 22.976562-12.300781-.722656-31.035156 15.683594-14.535157c-1.589844-4.632812-3.4375-9.136719-5.46875-13.488281l-30.238281 28.023438.71875 31.035156-22.972657 12.300781-10.066406 46.773437 19.742188 23.582032c4.433594-2.660156 8.652344-5.605469 12.65625-8.804688zm0 0" fill="#00d33d"/><path d="m271.316406 92.554688-9.839844-27.375-14.6875-10.671876-20.386718-43.09375c5.417968-1.265624 10.992187-2.558593 16.679687-3.296874-14.695312-1.589844-22.511719-.015626-36.707031 3.296874l20.386719 43.09375 14.6875 10.671876 9.84375 27.375 17.523437 4.003906 2.871094-3.921875zm0 0" fill="#00d33d"/><path d="m176.578125 200.316406 12.136719-12.3125 21.304687-1.835937-2.609375-1.5-38.71875 3.335937-12.136718 12.3125c19.824218 18.144532 46.226562 30.199219 75.214843 30.199219 2.148438 0 4.28125-.476563 6.402344-.894531-23.597656-3.097656-44.921875-14.046875-61.59375-29.304688zm0 0" fill="#00d33d"/><path d="m256.382812 136.535156h-15.019531v-15.019531h15.019531zm-25.03125 0h-15.019531v-15.019531h15.019531zm0 0" fill="#fff"/><path d="m71.394531 332.609375v-14.996094l24.0625-24.066406h14.996094l82.285156 82.285156v128.660157h-86.289062v-52.746094l-98.441407-98.441406v-178.222657h27.535157l21.023437 21.027344v98.121094l19.105469 19.105469-4.277344 4.277343v14.996094c62.523438 62.519531 62.78125 62.78125 0 0zm0 0" fill="#ffdaaa"/><path d="m392.144531 332.609375v-14.996094l-24.066406-24.066406h-14.992187l-82.285157 82.285156v128.660157h86.289063v-52.746094l98.441406-98.441406v-178.222657h-27.535156l-21.027344 21.027344v98.121094l-19.101562 19.105469 4.277343 4.277343v14.996094c-62.523437 62.519531-62.78125 62.78125 0 0zm0 0" fill="#ffdaaa"/><path d="m95.695312 313.335938 17.273438-17.273438-2.515625-2.511719h-14.996094l-9.773437 9.773438zm0 0" fill="#ffb680"/><path d="m28.03125 353.304688v-178.222657h-20.023438v178.222657l98.441407 98.441406v52.746094h20.023437v-52.746094zm0 0" fill="#ffb680"/><path d="m407.890625 313.335938 19.105469-19.105469v-98.121094l21.027344-21.027344h-20.027344l-21.023438 21.027344v98.121094l-9.09375 9.09375zm0 0" fill="#ffb680"/><path d="m370.59375 296.0625-2.515625-2.511719h-14.992187l-82.285157 82.28125v128.660157h20.027344v-128.660157zm0 0" fill="#ffb680"/><path d="m200.25 431.621094v-58.90625l-86.679688-86.675782h-20.957031v-72.011718l-25.429687-25.429688h-7.5l-21.027344-21.027344h-38.15625v188.84375l98.441406 98.445313v57.140625h101.308594v-60.15625h-15.019531v45.136719h-71.269531v-48.347657l-98.441407-98.445312v-167.597656h16.910157l16.632812 16.628906v98.125l16 16-1.171875 1.167969v21.207031l49.191406 49.183594 10.613281-10.613282-44.789062-44.796874v-8.769532l19.667969-19.664062h8.769531l77.886719 77.886718v52.675782zm-122.652344-130.816406-1.925781 1.914062-11.59375-11.605469v-84.382812l13.519531 13.515625zm0 0"/><path d="m77.597656 220.246094v80.558594l-1.925781 1.914062-11.59375-11.605469v-84.382812zm0 0" fill="#ffb680"/><path d="m424.878906 167.570312-21.027344 21.027344h-7.496093l-25.433594 25.429688v72.011718h-20.957031l-35.691406 35.703126 10.613281 10.613281 31.308593-31.296875h8.769532l19.664062 19.664062v8.769532l-44.785156 44.796874 10.613281 10.613282 49.191407-49.183594v-21.207031l-1.171876-1.167969 16-16v-98.125l16.628907-16.628906h16.914062v167.597656l-98.445312 98.445312v48.347657h-71.265625v-118.035157l32.289062-32.300781-10.613281-10.613281-36.695313 36.683594v139.285156h101.304688v-57.140625l98.445312-98.445313v-188.84375zm-25.421875 123.542969-11.59375 11.605469-1.921875-1.914062v-80.558594l13.515625-13.515625zm0 0"/><path d="m399.457031 206.730469v84.382812l-11.59375 11.605469-1.921875-1.914062v-80.558594zm0 0" fill="#ffb680"/><path d="m77.597656 220.246094v80.558594l-1.925781 1.914062-11.59375-11.605469v-84.382812zm0 0" fill="#ffb680"/><path d="m399.457031 206.730469v84.382812l-11.59375 11.605469-1.921875-1.914062v-80.558594zm0 0" fill="#ffb680"/><path d="m350.71875 122.753906c2.105469-67.808594-52.554688-122.753906-119.023438-122.753906-28.203124.015625-54.140624 9.902344-74.550781 26.375l-.167969-.117188-4.449218 3.972657c-24.574219 21.925781-39.917969 54.070312-39.765625 89.289062.035156 15.941407 1.644531 25.707031 5.898437 36.511719 15.324219 46.710938 58.824219 80.765625 110.3125 81.957031 64.492188 1.617188 119.636719-49.347656 121.746094-115.234375zm-183.160156 77.097656 4.535156-4.605468 33.613281-2.894532 26.011719 14.945313 1.671875 15.574219c-1.085937.15625-1.722656.136718-1.621094.136718-23.257812 0-45.722656-8.421874-64.210937-23.15625zm141.664062-96.652343 19.894532-18.4375c4.410156 11.800781 6.640624 23.289062 6.640624 34.253906 0 34.617187-17.179687 65.664063-45.179687 84.78125l-13.148437-15.707031 8.5625-39.785156 23.980468-12.839844zm-9.332031-61.78125-34.214844 46.71875-8.707031-1.988281-9.234375-25.683594-15.003906-10.90625-15.542969-32.855469c4.796875-.957031 9.632812-1.664063 14.394531-1.683594 23.929688-.09375 48.238281 8.777344 68.308594 26.398438zm-98.039063-22.007813 18.945313 40.042969 14.371094 10.441406 10.449219 29.0625 26.339843 6.023438 39.019531-53.277344c4.703126 5.527344 8.84375 11.546875 12.320313 17.976563l-29.242187 27.105468.691406 29.800782-21.972656 11.761718-11.570313 53.761719 16.78125 20.042969c-9.1875 4.578125-19.140625 7.835937-29.613281 9.523437l-2.535156-23.589843-36.726563-21.101563-43.824219 3.773437-9.277344 9.414063c-3.609374-3.839844-6.929687-7.953125-9.929687-12.304687l50.207031-22.167969 2.605469-26.726563-9.171875-13.667968v-13.5l16.398438-16.734376 4.496093-20.996093-40.636719-28.652344c9.515626-7.054687 20.273438-12.519531 31.875-16.011719zm-43.601562 26.121094 35.597656 25.097656-1.507812 7.039063-17.640625 18.003906v24.203125l8.71875 12.996094-1.230469 12.632812-43.019531 18.996094c-2.632813-5.070312-4.71875-9.371094-6.351563-13.492188-11.722656-36.171874-2.871094-77.15625 25.433594-105.476562zm0 0"/></svg>